<svg width="24" height="26" viewBox="0 0 24 26" fill="none" xmlns="http://www.w3.org/2000/svg">
<path d="M13.338 0.556265C12.9707 0.198154 12.4941 0 12 0C11.5059 0 11.0293 0.198154 10.662 0.556265L0 10.9519V22.2186C0 23.138 0.337142 24.0198 0.937258 24.6699C1.53737 25.32 2.35131 25.6853 3.2 25.6853H7V18.0705C7 16.6339 7.52678 15.2562 8.46447 14.2404C9.40215 13.2245 10.6739 12.6538 12 12.6538C13.3261 12.6538 14.5979 13.2245 15.5355 14.2404C16.4732 15.2562 17 16.6339 17 18.0705V25.682H20.8C21.6487 25.682 22.4626 25.3168 23.0627 24.6667C23.6629 24.0165 24 23.1348 24 22.2153V10.9487L13.338 0.556265Z" fill="white"/>
</svg>
